<svg xmlns="http://www.w3.org/2000/svg" viewBox="0 0 512 512"><defs><linearGradient id="blueGrad" x1="0%" y1="0%" x2="100%" y2="100%"><stop offset="0%" stop-color="#4fc3f7"/><stop offset="100%" stop-color="#1976d2"/></linearGradient></defs><g><path d="M104.6 256l77.7-77.7c8.5-8.5 8.5-22.3 0-30.8s-22.3-8.5-30.8 0l-93.1 93.1c-8.5 8.5-8.5 22.3 0 30.8l93.1 93.1c8.5 8.5 22.3 8.5 30.8 0s8.5-22.3 0-30.8L104.6 256zm302.8 15.4c8.5-8.5 8.5-22.3 0-30.8l-93.1-93.1c-8.5-8.5-22.3-8.5-30.8 0s-8.5 22.3 0 30.8l77.7 77.7-77.7 77.7c-8.5 8.5-8.5 22.3 0 30.8s22.3 8.5 30.8 0l93.1-93.1zM288 80c-12.1-2-23.5 6.3-25.5 18.4l-64 384c-2 12.1 6.3 23.5 18.4 25.5s23.5-6.3 25.5-18.4l64-384C308.4 93.4 300.1 82 288 80z" fill="url(#blueGrad)"/></g></svg>
